<svg xmlns="http://www.w3.org/2000/svg" height="48" viewBox="0 96 960 960" width="48"><path d="M140.109 912.674q-30.746 0-54.025-23.447-23.28-23.447-23.28-53.857V316.63q0-30.509 23.28-54.026 23.279-23.517 54.025-23.517h679.782q30.845 0 54.194 23.517 23.35 23.517 23.35 54.026v518.74q0 30.41-23.35 53.857-23.349 23.447-54.194 23.447H140.109ZM480 609.304 140.109 387.065V835.37h679.782V387.065L480 609.304Zm0-73.152L818.696 316.63H142.304L480 536.152ZM137.304 387.065V316.63v518.74H140.109h-2.805V387.065Z"/></svg>